<svg width="140" height="70" viewBox="0 0 1021 325" fill="none" xmlns="http://www.w3.org/2000/svg">
<path d="M165.535 92.31C165.535 92.31 150.868 89.377 138.295 89.377C125.722 89.377 119.436 92.31 119.436 100.691V104.881H145.435V174.028H119.436V318.61H25.144V174.03H0V104.883H25.144V102.788C25.144 44.537 57.413 23.165 113.149 23.165C142.485 23.165 165.534 28.613 169.724 29.451L165.535 92.31Z" fill="white"/>
<path d="M593.094 318.61V213.841C593.094 192.888 590.999 176.963 570.882 176.963C551.186 176.963 549.09 192.888 549.09 213.841V318.61H454.798V104.882H549.09L547.832 132.123C559.567 115.359 576.329 100.692 607.76 100.692C670.621 100.692 687.383 140.504 687.383 192.889V318.61H593.094Z" fill="white"/>
<path d="M872.605 305.199C855.843 317.772 833.631 324.058 803.457 324.058C773.284 324.058 736.406 318.61 704.556 294.303L736.406 238.985C765.741 258.263 800.104 261.615 805.972 261.615C811.839 261.615 818.124 260.777 818.124 254.91C818.124 247.367 791.303 241.5 782.504 238.985C746.463 228.509 717.547 217.613 717.547 171.934C717.547 127.512 756.521 100.273 807.649 100.273C858.775 100.273 886.435 117.455 898.168 124.999L872.605 177.802C851.232 164.392 826.925 157.687 811.001 157.687C802.62 157.687 799.268 160.201 799.268 164.811C799.268 169.84 809.745 172.773 822.317 176.126C862.547 188.279 900.684 200.014 900.684 251.559C900.683 274.607 889.368 292.627 872.605 305.199Z" fill="white"/>
<path d="M970.664 89.682C940.491 89.682 920.375 72.081 920.375 44.841C920.375 17.601 940.49 0 970.664 0C1001.26 0 1020.95 17.601 1020.95 44.841C1020.95 72.08 1001.26 89.682 970.664 89.682ZM923.726 318.61V104.882H1018.02V318.61H923.726Z" fill="white"/>
<path d="M333.952 105.382L331.952 105.381L333.892 152.902V154.494C327.428 138.214 317.953 125.999 305.462 117.852C292.966 109.712 279.415 105.639 264.818 105.639C246.848 105.639 229.862 110.272 213.856 119.537C197.853 128.803 185.072 141.649 175.53 158.075C165.98 174.501 161.209 192.821 161.209 213.038C161.209 233.537 165.98 252.142 175.53 268.844C185.072 285.553 197.78 298.747 213.647 308.434C229.506 318.121 246.564 322.964 264.818 322.964C296.827 322.964 319.848 308.789 333.892 280.425V319.595H333.937V319.61H428.037V105.382H333.952ZM333.892 215.986C333.326 226.937 329.048 236.413 321.047 244.414C313.043 252.417 303.423 256.418 292.196 256.418C280.679 256.418 270.716 252.351 262.293 244.204C253.867 236.064 249.657 226.094 249.657 214.301C249.657 202.791 253.795 192.893 262.081 184.609C270.36 176.329 280.403 172.184 292.196 172.184C302.862 172.184 312.34 176.119 320.626 183.977C328.904 191.84 333.327 201.39 333.892 212.616V215.986Z" fill="white"/>
</svg>